<svg width="32" height="31" viewBox="0 0 32 31" fill="none" xmlns="http://www.w3.org/2000/svg">
<path d="M24.4121 19.251C24.7733 20.9296 25.092 22.4489 25.3682 23.8088C25.4957 24.3825 25.6126 24.9562 25.7188 25.5299C25.8251 26.1036 25.926 26.6242 26.0216 27.0916C26.1172 27.5591 26.1969 27.9575 26.2607 28.2869C26.3244 28.6162 26.3669 28.8234 26.3882 28.9084C26.4519 29.3333 26.3563 29.6149 26.1013 29.753C25.8463 29.8911 25.5595 29.9602 25.2408 29.9602C25.1345 29.9602 24.9805 29.923 24.7786 29.8486C24.5767 29.7742 24.4227 29.7158 24.3165 29.6733L15.9977 24.8287C14.4891 25.7211 13.1186 26.5179 11.8862 27.2191C11.355 27.5166 10.8291 27.8141 10.3085 28.1116C9.7879 28.409 9.31512 28.6853 8.89015 28.9402C8.46519 29.1952 8.09865 29.4077 7.79055 29.5777C7.48245 29.7477 7.27528 29.8539 7.16904 29.8964C6.95655 30.0027 6.73876 30.0398 6.51565 30.008C6.29254 29.9761 6.09068 29.8964 5.91007 29.7689C5.72946 29.6414 5.59666 29.4874 5.51167 29.3068C5.42667 29.1262 5.40543 28.9402 5.44792 28.749C5.46917 28.664 5.52229 28.4568 5.60729 28.1275C5.69228 27.7981 5.7879 27.4051 5.89414 26.9482C6.00038 26.4914 6.12256 25.9867 6.26067 25.4343C6.39879 24.8818 6.54221 24.3187 6.69095 23.745C7.00968 22.4276 7.3709 20.9402 7.77462 19.2829C6.52096 18.1992 5.3948 17.2324 4.39613 16.3825C3.97116 16.0212 3.55151 15.6653 3.13717 15.3147C2.72282 14.9641 2.35098 14.6454 2.02163 14.3586C1.69228 14.0717 1.42136 13.838 1.20888 13.6574C0.996394 13.4768 0.879529 13.3758 0.85828 13.3546C0.6033 13.1209 0.385505 12.8606 0.204894 12.5737C0.0242828 12.2869 -0.0447743 11.9947 -0.00227764 11.6972C0.0402191 11.3997 0.157085 11.166 0.34832 10.996C0.539555 10.826 0.752039 10.7198 0.98577 10.6773L10.8344 9.78486L14.4997 1.24303C14.6272 0.903055 14.8078 0.61089 15.0415 0.366534C15.2753 0.122178 15.594 0 15.9977 0C16.2102 0 16.3961 0.0478088 16.5555 0.143426C16.7149 0.239044 16.8477 0.350598 16.9539 0.478088C17.0601 0.605578 17.1504 0.733068 17.2248 0.860558C17.2992 0.988048 17.3576 1.09429 17.4001 1.17928L20.9698 9.72112L30.8184 10.6454C31.2434 10.7517 31.5409 10.8792 31.7109 11.0279C31.8809 11.1766 31.9659 11.4104 31.9659 11.7291C31.9659 12.0266 31.8755 12.2869 31.6949 12.51C31.5143 12.7331 31.2859 13.004 31.0097 13.3227L24.4121 19.251Z" fill="#DD4848"/>
</svg>
