<svg width="24" height="24" viewBox="0 0 24 24" fill="none" xmlns="http://www.w3.org/2000/svg">
<path d="M22.5 16.5355L20.352 14.3875C19.452 13.4875 17.88 13.4875 16.98 14.3875C16.944 14.4235 16.92 14.4595 16.884 14.4955C16.488 15.0595 15.708 15.8875 15.264 15.9475C14.616 16.0435 12.468 15.2755 10.452 13.4275C8.35199 11.4955 7.76399 10.0555 7.75199 9.50352C7.73999 9.07152 8.31599 8.27952 8.71199 7.88352C9.64799 6.94752 9.64799 5.43552 8.71199 4.51152L6.56399 2.36352C5.63999 1.43952 4.11599 1.42752 3.19199 2.36352C2.80799 2.74752 1.53599 4.03152 1.23599 4.70352C0.287986 6.83952 -0.252014 11.3635 6.73199 17.5915C11.136 21.5155 14.628 22.5475 17.064 22.5475C18.984 22.5475 20.268 21.9115 20.856 21.5395C21.612 21.0595 22.368 20.1115 22.536 19.8835C23.436 18.9355 23.424 17.4595 22.5 16.5355ZM21.372 18.7795C21.348 18.8035 21.324 18.8275 21.3 18.8635C21.12 19.1035 20.484 19.8715 19.992 20.1835C18.912 20.8795 14.82 22.6555 7.78799 16.3915C3.16799 12.2755 1.35599 8.35152 2.69999 5.32752C2.80799 5.08752 3.56399 4.23552 4.30799 3.49152C4.46399 3.33552 4.66799 3.26352 4.85999 3.26352C5.05199 3.26352 5.26799 3.33552 5.41199 3.49152L7.57199 5.63952C7.71599 5.78352 7.79999 5.98752 7.79999 6.19152C7.79999 6.40752 7.71599 6.59952 7.57199 6.74352C7.33199 6.98352 6.10799 8.26752 6.14399 9.53952C6.17999 10.9075 7.35599 12.7675 9.37199 14.6155C11.388 16.4635 14.076 17.7475 15.492 17.5315C16.728 17.3515 17.832 15.9235 18.144 15.4795C18.456 15.2155 18.924 15.2275 19.212 15.5155L21.36 17.6635C21.684 17.9755 21.684 18.4795 21.372 18.7795Z" fill="black" fill-opacity="0.45"/>
</svg>
