<svg width="48" height="52" viewBox="0 0 48 52" fill="none" xmlns="http://www.w3.org/2000/svg">
<path d="M24 51.4971C19.2533 51.4971 14.6131 49.987 10.6663 47.1577C6.71954 44.3284 3.6434 40.3071 1.8269 35.6021C0.0103989 30.8972 -0.464881 25.72 0.461164 20.7253C1.38721 15.7305 3.67299 11.1426 7.02945 7.54159C10.3859 3.94059 14.6623 1.48828 19.3178 0.494763C23.9734 -0.498751 28.799 0.0111565 33.1844 1.96C37.5698 3.90885 41.3181 7.20911 43.9553 11.4434C46.5924 15.6778 48 20.656 48 25.7486C48 32.5775 45.4714 39.1268 40.9706 43.9556C36.4697 48.7844 30.3652 51.4971 24 51.4971ZM36.705 22.7199H11.295C10.5463 22.7199 9.82826 23.039 9.29885 23.607C8.76943 24.175 8.47201 24.9453 8.47201 25.7486C8.47201 26.5518 8.76943 27.3222 9.29885 27.8902C9.82826 28.4582 10.5463 28.7773 11.295 28.7773H36.705C37.4537 28.7773 38.1717 28.4582 38.7012 27.8902C39.2306 27.3222 39.528 26.5518 39.528 25.7486C39.528 24.9453 39.2306 24.175 38.7012 23.607C38.1717 23.039 37.4537 22.7199 36.705 22.7199Z" fill="#C5C5C5"/>
</svg>
