<svg width="24" height="24" viewBox="0 0 24 24" fill="none" xmlns="http://www.w3.org/2000/svg">
<path d="M24 12C24 18.6274 18.6274 24 12 24C5.37258 24 4.69686e-07 18.6274 1.04907e-06 12C1.62846e-06 5.37258 5.37259 -1.62846e-06 12 -1.04907e-06C18.6274 -4.69686e-07 24 5.37258 24 12Z" fill="#FF4343"/>
<path d="M12.75 13.4426L12.75 16.953L13.9567 15.7445C14.25 15.4511 14.725 15.4511 15.0167 15.7445C15.31 16.0379 15.31 16.5129 15.0167 16.8063L12.5433 19.2832C12.3933 19.4332 12.1967 19.5032 12 19.4999C11.8033 19.5032 11.6067 19.4315 11.4567 19.2832L8.98167 16.8063C8.68833 16.5129 8.68833 16.0379 8.98167 15.7445C9.275 15.4511 9.75 15.4511 10.0417 15.7445L11.2483 16.953L11.2483 13.4426C9.12167 13.0842 7.5 11.2374 7.5 9.00547C7.5 6.51688 9.515 4.5 12 4.5C14.485 4.5 16.5 6.51688 16.5 9.00547C16.5 11.2374 14.8783 13.0842 12.75 13.4426ZM12 6.00182C10.3433 6.00182 9 7.34696 9 9.00547C9 10.664 10.3433 12.0091 12 12.0091C13.6567 12.0091 15 10.664 15 9.00547C15 7.34696 13.6567 6.00182 12 6.00182Z" fill="white"/>
</svg>
