<svg width="40" height="40" viewBox="0 0 40 40" fill="none" xmlns="http://www.w3.org/2000/svg">
<rect width="40" height="40" fill="white" fill-opacity="0.01"/>
<path fill-rule="evenodd" clip-rule="evenodd" d="M7.80414 5.48111C7.16265 4.83963 6.1226 4.83963 5.48111 5.48111C4.83963 6.1226 4.83963 7.16265 5.48111 7.80414L17.677 20L5.48111 32.1959C4.83963 32.8373 4.83963 33.8774 5.48111 34.5189C6.1226 35.1604 7.16265 35.1604 7.80414 34.5189L20 22.323L32.1959 34.5189C32.8373 35.1604 33.8774 35.1604 34.5189 34.5189C35.1604 33.8774 35.1604 32.8373 34.5189 32.1959L22.323 20L34.5189 7.80414C35.1604 7.16265 35.1604 6.1226 34.5189 5.48111C33.8774 4.83963 32.8373 4.83963 32.1959 5.48111L20 17.677L7.80414 5.48111Z" fill="black"/>
</svg>
