<svg width="34" height="34" viewBox="0 0 34 34" fill="none" xmlns="http://www.w3.org/2000/svg">
  <path fill-rule="evenodd" clip-rule="evenodd" d="M28.528 18.8269L30.1131 19.7419C30.6007 20.0235 30.9496 20.4782 31.0955 21.0222C31.2412 21.5662 31.1664 22.1344 30.8848 22.6221L28.7599 26.3039C28.3843 26.9542 27.6843 27.3594 26.933 27.3594H26.9329C26.5641 27.3594 26.1999 27.2604 25.8797 27.0755L24.259 26.1392C23.3395 26.8689 22.3072 27.4608 21.2168 27.8848V29.7666C21.2168 30.9292 20.2709 31.875 19.1084 31.875H14.8584C13.6958 31.875 12.75 30.9292 12.75 29.7666V27.8716C11.6663 27.4463 10.6408 26.8546 9.72724 26.1275L8.08701 27.0745C7.76678 27.2593 7.40357 27.3568 7.0338 27.3571C6.28242 27.3571 5.58236 26.9531 5.20687 26.3027L3.08187 22.6221C2.50058 21.6153 2.84676 20.3233 3.85358 19.742L5.46914 18.8092C5.37607 18.2119 5.32906 17.6061 5.32906 17C5.32912 16.4252 5.37137 15.8511 5.45546 15.2825L3.85358 14.3576C2.84676 13.7763 2.50058 12.4843 3.08187 11.4775L5.20687 7.79689C5.58236 7.14654 6.28238 6.74253 7.03377 6.74253C7.40354 6.74281 7.76675 6.84028 8.08697 7.02518L9.65556 7.9308C10.5877 7.17659 11.638 6.56482 12.7499 6.12843V4.33301C12.7499 3.17043 13.6957 2.22461 14.8583 2.22461H19.1083C20.2709 2.22461 21.2167 3.17043 21.2167 4.33301V6.11515C22.3356 6.55031 23.3923 7.16264 24.3305 7.91958L25.8797 7.02518C26.1999 6.84028 26.5631 6.74281 26.9329 6.74253C27.6842 6.74253 28.3843 7.14654 28.7598 7.79686L30.8848 11.4775C31.1664 11.9652 31.2412 12.5334 31.0954 13.0774C30.9496 13.6214 30.6008 14.0761 30.113 14.3577L28.5418 15.2648C28.6275 15.8386 28.6708 16.4195 28.6708 17C28.6708 17.6117 28.623 18.2226 28.528 18.8269ZM26.9482 25.2568L29.0732 21.5762C29.0751 21.573 29.0767 21.5702 29.0749 21.5636C29.0731 21.557 29.0704 21.5554 29.0672 21.5535L29.0672 21.5535L26.8383 20.2667C26.6449 20.155 26.4923 19.9844 26.4028 19.7797C26.3134 19.5751 26.2918 19.3472 26.3413 19.1294C26.499 18.4342 26.579 17.7177 26.579 17C26.579 16.3108 26.5051 15.6237 26.3586 14.9503C26.3113 14.7336 26.3342 14.5075 26.4239 14.3046C26.5136 14.1018 26.6654 13.9327 26.8575 13.8218L29.0671 12.5461L29.0672 12.546C29.0703 12.5442 29.0731 12.5426 29.0749 12.536C29.0767 12.5294 29.0751 12.5266 29.0732 12.5234L26.9482 8.84276L26.9482 8.84273C26.947 8.84065 26.9433 8.83429 26.9328 8.83429C26.9313 8.83429 26.9297 8.83429 26.9255 8.83671L24.733 10.1025C24.5397 10.2142 24.3157 10.261 24.0939 10.2362C23.8721 10.2114 23.664 10.1163 23.5001 9.96479C22.4602 9.00349 21.2011 8.27382 19.859 7.85473C19.6462 7.78828 19.4602 7.65558 19.3281 7.47598C19.1961 7.29639 19.1249 7.0793 19.1249 6.85638V4.33301C19.1249 4.3286 19.1231 4.32438 19.12 4.32127C19.1169 4.31816 19.1127 4.31641 19.1083 4.31641H14.8583C14.8538 4.31641 14.8496 4.31816 14.8465 4.32127C14.8434 4.32438 14.8417 4.3286 14.8417 4.33301V6.8671C14.8417 7.08944 14.7708 7.30599 14.6394 7.48532C14.508 7.66466 14.3228 7.79745 14.1108 7.86443C12.7748 8.2865 11.5221 9.01648 10.4882 9.97545C10.3243 10.1274 10.1161 10.2229 9.89395 10.2479C9.67184 10.2729 9.44756 10.2261 9.254 10.1144L7.04098 8.83668C7.03712 8.83446 7.0355 8.83429 7.03367 8.83429C7.02327 8.83429 7.01959 8.84056 7.01833 8.8427L7.0183 8.84276L4.8933 12.5234C4.8911 12.5272 4.8905 12.5317 4.89164 12.536C4.89278 12.5402 4.89556 12.5439 4.89937 12.5461L7.13849 13.8388C7.33031 13.9496 7.48201 14.1184 7.57175 14.3208C7.66149 14.5233 7.68463 14.7491 7.63784 14.9656C7.34268 16.3333 7.34859 17.7489 7.65517 19.1141C7.70416 19.3317 7.68232 19.5592 7.59284 19.7635C7.50336 19.9678 7.35092 20.1381 7.15778 20.2496L4.89941 21.5535C4.8956 21.5557 4.89282 21.5593 4.89168 21.5636C4.89054 21.5678 4.89114 21.5724 4.89333 21.5762L7.01833 25.2568C7.01953 25.2589 7.02321 25.2653 7.0337 25.2653C7.03533 25.2653 7.03689 25.2653 7.04104 25.2629L9.32007 23.9471C9.47895 23.8553 9.65924 23.8069 9.84276 23.807C10.1036 23.8068 10.355 23.9043 10.5477 24.0801C11.5685 25.0108 12.8006 25.7216 14.1109 26.1355C14.3229 26.2025 14.508 26.3353 14.6394 26.5146C14.7708 26.694 14.8417 26.9105 14.8417 27.1329V29.7666C14.8417 29.771 14.8434 29.7752 14.8465 29.7783C14.8497 29.7815 14.8539 29.7832 14.8583 29.7832H19.1083C19.1174 29.7832 19.1249 29.7757 19.1249 29.7666V27.1437C19.1249 26.9208 19.1961 26.7037 19.3282 26.5241C19.4602 26.3445 19.6462 26.2118 19.859 26.1453C21.1756 25.7342 22.4141 25.0237 23.4406 24.0908C23.6046 23.9416 23.8118 23.8485 24.0323 23.8248C24.2527 23.8011 24.475 23.8481 24.667 23.9589L26.9255 25.2629C26.9294 25.2651 26.931 25.2653 26.9329 25.2653C26.9434 25.2653 26.947 25.2589 26.9482 25.2568ZM11.7041 17C11.7041 14.0798 14.0798 11.7041 17 11.7041C19.9201 11.7041 22.2959 14.0798 22.2959 17C22.2959 19.9201 19.9201 22.2959 17 22.2959C14.0798 22.2959 11.7041 19.9201 11.7041 17ZM13.7959 17C13.7959 18.7667 15.2333 20.2041 17 20.2041C18.7667 20.2041 20.2041 18.7667 20.2041 17C20.2041 15.2333 18.7667 13.7959 17 13.7959C15.2333 13.7959 13.7959 15.2333 13.7959 17Z" fill="#F8B500"/>
</svg>
