<svg width="22" height="22" viewBox="0 0 22 22" fill="none" xmlns="http://www.w3.org/2000/svg">
<g clip-path="url(#clip0_38_642)">
<rect width="375" height="812" transform="translate(-337 -150)" fill="#F6F7F9"/>
<rect x="-337" y="-62" width="375" height="724" fill="url(#paint0_linear_38_642)"/>
<g filter="url(#filter0_b_38_642)">
<rect x="-337" y="-150" width="375" height="813" fill="black" fill-opacity="0.3"/>
</g>
<path d="M-337 2.99999C-337 -5.83656 -329.837 -13 -321 -13H22C30.8366 -13 38 -5.83656 38 3V662H-337V2.99999Z" fill="#F6F7F9"/>
<path d="M-337 3C-337 -5.83656 -329.837 -13 -321 -13H22C30.8366 -13 38 -5.83656 38 3V35H-337V3Z" fill="#F6F7F9"/>
<rect opacity="0.01" width="22" height="22" fill="black"/>
<path fill-rule="evenodd" clip-rule="evenodd" d="M12.1131 11L17.7527 4.27754C17.8472 4.16582 17.7678 3.99609 17.6217 3.99609H15.9072C15.8062 3.99609 15.7095 4.04121 15.6429 4.11855L10.9916 9.66367L6.34021 4.11855C6.27576 4.04121 6.17908 3.99609 6.07595 3.99609H4.3615C4.21541 3.99609 4.13591 4.16582 4.23045 4.27754L9.87009 11L4.23045 17.7225C4.13591 17.8342 4.21541 18.0039 4.3615 18.0039H6.07595C6.17693 18.0039 6.27361 17.9588 6.34021 17.8814L10.9916 12.3363L15.6429 17.8814C15.7074 17.9588 15.8041 18.0039 15.9072 18.0039H17.6217C17.7678 18.0039 17.8472 17.8342 17.7527 17.7225L12.1131 11Z" fill="black" fill-opacity="0.65"/>
</g>
<defs>
<filter id="filter0_b_38_642" x="-341" y="-154" width="383" height="821" filterUnits="userSpaceOnUse" color-interpolation-filters="sRGB">
<feFlood flood-opacity="0" result="BackgroundImageFix"/>
<feGaussianBlur in="BackgroundImageFix" stdDeviation="2"/>
<feComposite in2="SourceAlpha" operator="in" result="effect1_backgroundBlur_38_642"/>
<feBlend mode="normal" in="SourceGraphic" in2="effect1_backgroundBlur_38_642" result="shape"/>
</filter>
<linearGradient id="paint0_linear_38_642" x1="-149.5" y1="-62" x2="-149" y2="68" gradientUnits="userSpaceOnUse">
<stop stop-color="#F8B500"/>
<stop offset="1" stop-color="white"/>
</linearGradient>
<clipPath id="clip0_38_642">
<rect width="375" height="812" fill="white" transform="translate(-337 -150)"/>
</clipPath>
</defs>
</svg>
