<svg width="24" height="24" viewBox="0 0 24 24" fill="none" xmlns="http://www.w3.org/2000/svg">
<g clip-path="url(#clip0_79_4618)">
<path fill-rule="evenodd" clip-rule="evenodd" d="M3.06057 19.5018C3.17302 19.5536 3.29535 19.5804 3.41915 19.5804C3.5874 19.5803 3.75191 19.5308 3.89218 19.4379L7.56825 17.0036C7.84864 17.0543 8.13222 17.0936 8.41728 17.1212C8.47266 17.2627 8.53296 17.403 8.59815 17.542C9.00824 18.4157 9.59324 19.1987 10.3371 19.8694C11.8491 21.2325 13.8535 21.9833 15.9814 21.9833C16.4911 21.9833 17 21.9391 17.499 21.8521L20.5277 23.8575C20.6713 23.9526 20.836 24 21.001 24C21.1652 24 21.326 23.9529 21.4641 23.8642C21.6041 23.7744 21.7149 23.6459 21.7831 23.4942C21.8513 23.3425 21.8738 23.1743 21.848 23.01L21.3875 20.0748C22.1182 19.4665 22.7276 18.7337 23.1677 17.9298C23.7262 16.9093 24.0096 15.8097 24.0096 14.6612C24.0096 13.6615 23.7926 12.6924 23.3649 11.7806C22.9548 10.9069 22.3698 10.1239 21.6259 9.45321C20.8107 8.71826 19.8523 8.16131 18.8086 7.80407C18.7171 6.87496 18.4621 5.97424 18.0474 5.11875C17.5591 4.11107 16.8704 3.20893 16.0012 2.43723C14.2312 0.865447 11.8936 0 9.41915 0C6.91709 0 4.56076 0.882053 2.78459 2.48384C1.91218 3.27054 1.2262 4.18848 0.745666 5.21277C0.244773 6.28018 -0.00915527 7.41482 -0.00915527 8.58482C-0.00915527 9.9292 0.322452 11.2165 0.976559 12.4114C1.50692 13.3805 2.24808 14.2623 3.13763 14.9874L2.57245 18.5904C2.55323 18.7127 2.56074 18.8377 2.59445 18.9568C2.62817 19.0759 2.68729 19.1863 2.76776 19.2804C2.84822 19.3745 2.94812 19.45 3.06057 19.5018ZM15.9988 9.05359C16.6007 9.05506 17.1963 9.13271 17.7696 9.28393C17.7845 9.28785 17.7994 9.29137 17.8145 9.29448C20.4048 9.99372 22.2951 12.1352 22.2953 14.6612C22.2953 16.3639 21.4371 17.9555 19.9403 19.028C19.6111 19.264 19.4954 19.6937 19.6497 20.0582L19.853 21.3544L18.3192 20.3389C18.1178 20.1327 17.8181 20.0344 17.5194 20.1008C17.0182 20.2122 16.5007 20.2688 15.9816 20.2688C13.1068 20.2688 10.6745 18.5532 9.9143 16.2143C9.90904 16.1651 9.89947 16.116 9.88549 16.0677C9.7537 15.6118 9.68674 15.1398 9.68674 14.6652C9.68674 11.6192 12.4229 9.13238 15.8192 9.05541C15.8731 9.05419 15.9271 9.05357 15.9814 9.05357C15.9815 9.05357 15.9816 9.05357 15.9816 9.05357C15.9874 9.05357 15.9931 9.05358 15.9988 9.05359ZM17.0167 7.39923C16.3792 4.18121 13.1942 1.71429 9.41915 1.71429C5.16558 1.71429 1.70486 4.79652 1.70486 8.58482C1.70486 10.6749 2.75647 12.6273 4.58995 13.9409C4.92424 14.1806 5.03834 14.6207 4.87254 14.989L4.56718 16.935L6.73281 15.5012C6.93424 15.2863 7.24013 15.1829 7.54468 15.2507C7.69093 15.2833 7.8384 15.3119 7.98687 15.3369C7.96459 15.1135 7.95342 14.8883 7.95342 14.6614C7.95342 13.6618 8.17039 12.6927 8.59815 11.7809C9.00798 10.9071 9.59298 10.1239 10.3371 9.45348C11.8491 8.09009 13.8538 7.33929 15.9816 7.33929C16.3305 7.33929 16.6761 7.35947 17.0167 7.39923ZM5.50532 6.92214C5.20392 6.62074 5.0346 6.21195 5.0346 5.78571C5.0346 5.35947 5.20392 4.95069 5.50532 4.64929C5.80672 4.34789 6.2155 4.17857 6.64174 4.17857C7.06798 4.17857 7.47676 4.34789 7.77816 4.64929C8.07956 4.95069 8.24888 5.35947 8.24888 5.78571C8.24888 6.21195 8.07956 6.62074 7.77816 6.92214C7.47676 7.22353 7.06798 7.39286 6.64174 7.39286C6.2155 7.39286 5.80672 7.22353 5.50532 6.92214ZM10.7115 6.40074C10.6307 6.20575 10.5891 5.99677 10.5891 5.78571C10.5891 5.57466 10.6307 5.36567 10.7115 5.17069C10.7922 4.9757 10.9106 4.79853 11.0598 4.64929C11.2091 4.50006 11.3863 4.38167 11.5812 4.30091C11.7762 4.22014 11.9852 4.17857 12.1963 4.17857C12.4073 4.17857 12.6163 4.22014 12.8113 4.30091C13.0063 4.38167 13.1835 4.50006 13.3327 4.64929C13.4819 4.79853 13.6003 4.9757 13.6811 5.17069C13.7618 5.36567 13.8034 5.57466 13.8034 5.78571C13.8034 5.99677 13.7618 6.20575 13.6811 6.40074C13.6003 6.59573 13.4819 6.7729 13.3327 6.92214C13.1835 7.07137 13.0063 7.18975 12.8113 7.27052C12.6163 7.35129 12.4073 7.39286 12.1963 7.39286C11.9852 7.39286 11.7762 7.35129 11.5812 7.27052C11.3863 7.18975 11.2091 7.07137 11.0598 6.92214C10.9106 6.7729 10.7922 6.59573 10.7115 6.40074ZM17.3092 14.0059C17.0402 13.737 16.8891 13.3722 16.8891 12.9919C16.8891 12.6115 17.0402 12.2467 17.3092 11.9778C17.5781 11.7088 17.9429 11.5578 18.3232 11.5578C18.7036 11.5578 19.0684 11.7088 19.3373 11.9778C19.6063 12.2467 19.7574 12.6115 19.7574 12.9919C19.7574 13.3722 19.6063 13.737 19.3373 14.0059C19.0684 14.2749 18.7036 14.426 18.3232 14.426C17.9429 14.426 17.5781 14.2749 17.3092 14.0059ZM12.2057 12.9919C12.2057 13.3722 12.3567 13.737 12.6257 14.0059C12.8946 14.2749 13.2594 14.426 13.6398 14.426C14.0201 14.426 14.3849 14.2749 14.6538 14.0059C14.9228 13.737 15.0739 13.3722 15.0739 12.9919C15.0739 12.6115 14.9228 12.2467 14.6538 11.9778C14.3849 11.7088 14.0201 11.5578 13.6398 11.5578C13.2594 11.5578 12.8946 11.7088 12.6257 11.9778C12.3567 12.2467 12.2057 12.6115 12.2057 12.9919Z" fill="black" fill-opacity="0.45"/>
</g>
<defs>
<clipPath id="clip0_79_4618">
<rect width="24" height="24" fill="white"/>
</clipPath>
</defs>
</svg>
