<svg width="28" height="28" viewBox="0 0 28 28" fill="none" xmlns="http://www.w3.org/2000/svg">
<path d="M12.5 22.511C12.5 23.3394 13.1716 24.011 14 24.011C14.8284 24.011 15.5 23.3394 15.5 22.511C15.5 21.6826 14.8284 21.011 14 21.011C13.1716 21.011 12.5 21.6826 12.5 22.511Z" fill="#262626"/>
<path d="M14 28C6.28002 28 0 21.72 0 14C0 6.28002 6.28002 0 14 0C21.72 0 28 6.28002 28 14C28 21.72 21.72 28 14 28ZM14 2.00898C7.38799 2.00898 2.00898 7.38799 2.00898 14C2.00898 20.611 7.38799 25.991 14 25.991C20.611 25.991 25.991 20.611 25.991 14C25.991 7.38799 20.611 2.00898 14 2.00898Z" fill="#262626"/>
<path d="M14 19.053C13.448 19.053 13 18.605 13 18.053V16.362C13 14.726 14.25 13.476 15.354 12.373C16.1629 11.563 17 10.727 17 10.06C17 8.39301 15.654 7.03701 14 7.03701C12.318 7.03701 11 8.33501 11 9.99199C11 10.544 10.552 10.992 10 10.992C9.44798 10.992 8.99997 10.544 8.99997 9.99199C8.99997 7.25999 11.243 5.03701 14 5.03701C16.757 5.03701 19 7.28999 19 10.06C19 11.557 17.865 12.691 16.768 13.788C15.898 14.656 15 15.554 15 16.361V18.052C15 18.604 14.552 19.053 14 19.053Z" fill="#262626"/>
</svg>
