<svg width="20" height="20" viewBox="0 0 20 20" fill="none" xmlns="http://www.w3.org/2000/svg">
  <path d="M8.92856 16.0793C8.92856 16.671 9.40826 17.1507 10 17.1507C10.5917 17.1507 11.0714 16.671 11.0714 16.0793C11.0714 15.4876 10.5917 15.0079 10 15.0079C9.40826 15.0079 8.92856 15.4876 8.92856 16.0793Z" fill="#9D9D9C"/>
  <path d="M10 20C4.48573 20 0 15.5143 0 10C0 4.48573 4.48573 0 10 0C15.5143 0 20 4.48573 20 10C20 15.5143 15.5143 20 10 20ZM10 1.43498C5.27713 1.43498 1.43498 5.27713 1.43498 10C1.43498 14.7221 5.27713 18.565 10 18.565C14.7221 18.565 18.565 14.7222 18.565 10C18.565 5.27713 14.7221 1.43498 10 1.43498Z" fill="#9D9D9C"/>
  <path d="M10 13.6093C9.6057 13.6093 9.2857 13.2893 9.2857 12.895V11.6871C9.2857 10.5186 10.1785 9.6257 10.9671 8.83787C11.545 8.2593 12.1428 7.66214 12.1428 7.18571C12.1428 5.99501 11.1814 5.02644 10 5.02644C8.79859 5.02644 7.85716 5.95358 7.85716 7.13714C7.85716 7.53144 7.53716 7.8514 7.14286 7.8514C6.74856 7.8514 6.42855 7.5314 6.42855 7.13714C6.42855 5.18571 8.03068 3.59787 10 3.59787C11.9693 3.59787 13.5714 5.20713 13.5714 7.18571C13.5714 8.255 12.7607 9.06499 11.9772 9.84856C11.3557 10.4686 10.7143 11.11 10.7143 11.6864V12.8943C10.7143 13.2886 10.3943 13.6093 10 13.6093Z" fill="#9D9D9C"/>
</svg>
