<svg width="36" height="36" viewBox="0 0 36 36" fill="none" xmlns="http://www.w3.org/2000/svg">
  <g clip-path="url(#clip0_5646_111780)">
    <path d="M16.5 24V1.5C16.5 0.675 17.175 0 18 0C18.825 0 19.5 0.675 19.5 1.5V24C19.5 24.825 18.825 25.5 18 25.5C17.175 25.5 16.5 24.825 16.5 24Z" fill="#333333"/>
    <path d="M7.95222 9.42437L16.9387 0.437572C17.2205 0.157317 17.6018 0 17.9992 0C18.3967 0 18.7779 0.157317 19.0597 0.437572C19.6432 1.02107 19.6432 1.97657 19.0597 2.55857L10.0732 11.5454C9.79143 11.8256 9.41015 11.9829 9.01272 11.9829C8.61529 11.9829 8.23402 11.8256 7.95222 11.5454C7.67197 11.2636 7.51465 10.8823 7.51465 10.4849C7.51465 10.0874 7.67197 9.70617 7.95222 9.42437Z" fill="#333333"/>
    <path d="M19.0566 0.436972L28.0431 9.42347C28.3234 9.70527 28.4807 10.0865 28.4807 10.484C28.4807 10.8814 28.3234 11.2627 28.0431 11.5445C27.4596 12.1283 26.5041 12.1283 25.9221 11.5445L16.9356 2.55857C16.6553 2.27678 16.498 1.8955 16.498 1.49807C16.498 1.10064 16.6553 0.719368 16.9356 0.437572C17.2174 0.157317 17.5987 0 17.9961 0C18.3935 0 18.7748 0.157317 19.0566 0.437572M31.5 35.9996H4.5C2.019 35.9996 0 33.9806 0 31.4996V22.4996C0 21.6701 0.6705 20.9996 1.5 20.9996C2.3295 20.9996 3 21.6701 3 22.4996V31.4996C3 32.3276 3.672 32.9996 4.5 32.9996H31.5C32.328 32.9996 33 32.3276 33 31.4996V22.4996C33 21.6701 33.6705 20.9996 34.5 20.9996C35.3295 20.9996 36 21.6701 36 22.4996V31.4996C36 33.9806 33.981 35.9996 31.5 35.9996Z" fill="#333333"/>
  </g>
  <defs>
    <clipPath id="clip0_5646_111780">
      <rect width="36" height="36" fill="white"/>
    </clipPath>
  </defs>
</svg>
