<svg width="48" height="48" viewBox="0 0 48 48" fill="none" xmlns="http://www.w3.org/2000/svg">
<path d="M40.9742 7.02464C38.7465 4.79398 36.1003 3.02517 33.1874 1.81971C30.2745 0.614252 27.1522 -0.00412984 23.9997 5.064e-05C20.8469 -0.00643905 17.7239 0.61089 14.8107 1.81648C11.8975 3.02207 9.25156 4.79211 7.02533 7.02464C-2.34113 16.3846 -2.34113 31.6144 7.02533 40.9743C9.25166 43.2067 11.8976 44.9767 14.8108 46.1823C17.724 47.3879 20.8469 48.0053 23.9997 47.9989C27.1529 48.0081 30.2767 47.392 33.1903 46.1863C36.1039 44.9805 38.7496 43.2091 40.9742 40.9743C50.3415 31.6144 50.3415 16.3846 40.9742 7.02464ZM38.2003 17.7286L22.0779 34.8812C22.0024 34.966 21.9078 35.0318 21.8019 35.0732C21.7198 35.1285 21.6653 35.1839 21.5546 35.2098C21.3554 35.2973 21.1407 35.3438 20.9231 35.3464C20.7175 35.3397 20.5138 35.3033 20.3186 35.2384L20.1266 35.1276C20.0115 35.0735 19.9015 35.0093 19.798 34.9356L10.5681 25.8517C10.4088 25.6996 10.2826 25.5162 10.1975 25.313C10.1123 25.1099 10.0701 24.8913 10.0733 24.671C10.0733 24.2316 10.2413 23.7923 10.5413 23.4904C10.8591 23.1863 11.2821 23.0165 11.7219 23.0165C12.1618 23.0165 12.5847 23.1863 12.9026 23.4904L20.8706 31.3384L35.7837 15.4791C36.0945 15.1703 36.5105 14.9903 36.9484 14.9752C37.3862 14.9602 37.8136 15.1111 38.1449 15.3978C38.3105 15.5465 38.4428 15.7286 38.533 15.9321C38.6232 16.1356 38.6693 16.3559 38.6683 16.5785C38.6668 17.0085 38.4991 17.4212 38.2003 17.7305L38.2003 17.7286Z" fill="#52C41A"/>
</svg>
