<svg width="34" height="34" viewBox="0 0 34 34" fill="none" xmlns="http://www.w3.org/2000/svg">
<path d="M25.2313 21.9937C24.813 21.6816 24.1854 21.6816 23.8733 22.0966L21.4727 24.3943C21.1606 24.7064 20.636 24.8126 20.221 24.6035C17.9233 23.3517 15.8348 21.7845 14.0585 20.0082C12.2821 18.2351 10.7149 16.1466 9.46315 13.849C9.25397 13.4306 9.36022 12.9093 9.67233 12.5972L12.0729 10.1966C12.4913 9.77827 12.4913 9.25698 12.1758 8.83862L8.83561 4.76128C8.83561 4.76128 8.83561 4.65835 8.73268 4.65835C8.31432 4.23999 7.68678 4.23999 7.27174 4.65835L4.44947 7.47729C3.09147 8.8353 6.53795 15.3099 12.5975 21.4724C18.6571 27.6349 25.2313 30.9751 26.5893 29.6171L29.4083 26.7982L29.5112 26.6953C29.8233 26.2769 29.8233 25.5464 29.302 25.2343L25.2313 21.9937ZM22.4124 20.5328C23.5612 19.3839 25.3376 19.281 26.5893 20.3236L30.6633 23.5609C32.0214 24.6068 32.2305 26.589 31.1846 27.947C31.0817 28.0499 31.0817 28.1562 30.9755 28.1562L28.1565 30.9751C25.4405 33.6912 18.1292 29.8263 11.1333 22.8271C4.13736 15.8279 0.37545 8.62612 2.98522 5.91011L5.80416 3.09116C7.05592 1.8394 9.04147 1.8394 10.1903 3.09116L10.3995 3.30034L13.6401 7.37104C14.686 8.6228 14.5797 10.3992 13.4309 11.548L11.6546 13.3244C12.8034 15.2037 14.0551 16.8738 15.5194 18.338C16.9837 19.8023 18.6538 21.0541 20.5331 22.2029L22.4124 20.5328ZM18.7567 6.4314C18.1292 6.4314 17.7108 6.01304 17.7108 5.3855C17.7108 4.75796 18.1292 4.3396 18.7567 4.3396C24.5008 4.3396 29.2024 9.03784 29.2024 14.7853C29.2024 15.4128 28.784 15.8312 28.1565 15.8312C27.529 15.8312 27.1106 15.4128 27.1106 14.7853C27.1139 10.1933 23.352 6.4314 18.7567 6.4314ZM18.7567 10.6083C18.1292 10.6083 17.7108 10.19 17.7108 9.56245C17.7108 8.93491 18.1292 8.51655 18.7567 8.51655C22.2032 8.51655 25.0221 11.3355 25.0221 14.782C25.0221 15.4095 24.6038 15.8279 23.9762 15.8279C23.3487 15.8279 22.9303 15.4095 22.9303 14.782C22.9337 12.491 21.0544 10.6083 18.7567 10.6083Z" fill="#262626"/>
<path d="M17.7109 5.38574C17.7109 6.01328 18.1293 6.43164 18.7568 6.43164C23.3521 6.43164 27.1141 10.1936 27.1107 14.7855C27.1107 15.4131 27.5291 15.8314 28.1566 15.8314C28.7842 15.8314 29.2025 15.4131 29.2025 14.7855C29.2025 9.03808 24.501 4.33984 18.7568 4.33984C18.1293 4.33984 17.7109 4.7582 17.7109 5.38574Z" fill="#F8B500"/>
<path d="M17.7109 9.5627C17.7109 10.1902 18.1293 10.6086 18.7568 10.6086C21.0545 10.6086 22.9338 12.4912 22.9305 14.7822C22.9305 15.4098 23.3488 15.8281 23.9764 15.8281C24.6039 15.8281 25.0223 15.4098 25.0223 14.7822C25.0223 11.3357 22.2033 8.5168 18.7568 8.5168C18.1293 8.5168 17.7109 8.93516 17.7109 9.5627Z" fill="#F8B500"/>
</svg>
