<svg fill="none" xmlns="http://www.w3.org/2000/svg" viewBox="0 0 28 28" class="design-iconfont">
  <g clip-path="url(#486qe0iqo__clip0_3_1361)">
    <path transform="translate(-268 -170)" fill="#F6F7F9" d="M0 0H750V1624H0z"/>
    <path fill="#F6F7F9" d="M-268 -170H482V1452H-268z"/>
    <path fill="#fff" d="M-268 -38H481V66H-268z"/>
    <path fill="#fff" d="M-268 -38H482V66H-268z"/>
    <path d="M-24 -6C-24 -10.4183 -20.4183 -14 -16 -14H442C446.418 -14 450 -10.4183 450 -6V34C450 38.4183 446.418 42 442 42H-16C-20.4183 42 -24 38.4183 -24 34V-6Z" fill="#F6F7F9"/>
    <path fill="#fff" fill-opacity=".01" d="M0 0H28V28H0z"/>
    <path fill-rule="evenodd" clip-rule="evenodd" d="M12.3189 1.16669C18.4782 1.16669 23.4712 6.15974 23.4712 12.319C23.4712 14.9757 22.5422 17.4155 20.9913 19.3312L26.4895 24.8293C26.9479 25.2878 26.9479 26.0311 26.4895 26.4895C26.031 26.948 25.2877 26.948 24.8293 26.4895L19.3311 20.9914C17.4155 22.5423 14.9757 23.4713 12.3189 23.4713C6.15968 23.4713 1.16663 18.4782 1.16663 12.319C1.16663 6.15974 6.15968 1.16669 12.3189 1.16669ZM12.3189 3.51454C7.45636 3.51454 3.51448 7.45642 3.51448 12.319C3.51448 17.1815 7.45636 21.1234 12.3189 21.1234C17.1815 21.1234 21.1234 17.1815 21.1234 12.319C21.1234 7.45642 17.1815 3.51454 12.3189 3.51454Z" fill="#000" fill-opacity=".45"/>
  </g>
  <defs>
    <clipPath id="486qe0iqo__clip0_3_1361">
      <path fill="#fff" transform="translate(-268 -170)" d="M0 0H750V1624H0z"/>
    </clipPath>
  </defs>
</svg>
