<svg width="24" height="24" viewBox="0 0 24 24" fill="none" xmlns="http://www.w3.org/2000/svg">
<path d="M0 12C0 5.37258 5.37258 0 12 0C18.6274 0 24 5.37258 24 12C24 18.6274 18.6274 24 12 24C5.37258 24 0 18.6274 0 12Z" fill="#5577FB"/>
<path d="M11.25 10.5574V7.04704L10.0433 8.2555C9.75 8.54887 9.275 8.54887 8.98333 8.2555C8.69 7.96214 8.69 7.48709 8.98333 7.19373L11.4567 4.7168C11.6067 4.56679 11.8033 4.49678 12 4.50011C12.1967 4.49678 12.3933 4.56845 12.5433 4.7168L15.0183 7.19373C15.3117 7.48709 15.3117 7.96214 15.0183 8.2555C14.725 8.54887 14.25 8.54887 13.9583 8.2555L12.7517 7.04704V10.5574C14.8783 10.9158 16.5 12.7626 16.5 14.9945C16.5 17.4831 14.485 19.5 12 19.5C9.515 19.5 7.5 17.4831 7.5 14.9945C7.5 12.7626 9.12167 10.9158 11.25 10.5574ZM12 17.9982C13.6567 17.9982 15 16.653 15 14.9945C15 13.336 13.6567 11.9909 12 11.9909C10.3433 11.9909 9 13.336 9 14.9945C9 16.653 10.3433 17.9982 12 17.9982Z" fill="white"/>
</svg>
