<svg width="16" height="15" viewBox="0 0 16 15" fill="none" xmlns="http://www.w3.org/2000/svg">
  <path
    d="M3.79396 9.6255C3.61335 10.4648 3.45399 11.2244 3.31587 11.9044C3.25213 12.1912 3.19369 12.4781 3.14057 12.7649C3.08745 13.0518 3.03699 13.3121 2.98918 13.5458C2.94137 13.7795 2.90153 13.9788 2.86965 14.1434C2.83778 14.3081 2.81653 14.4117 2.80591 14.4542C2.77404 14.6667 2.82185 14.8074 2.94934 14.8765C3.07683 14.9456 3.22025 14.9801 3.37961 14.9801C3.43274 14.9801 3.50976 14.9615 3.61069 14.9243C3.71162 14.8871 3.78865 14.8579 3.84177 14.8367L8.00113 12.4143C8.75545 12.8606 9.44071 13.259 10.0569 13.6096C10.3225 13.7583 10.5855 13.907 10.8458 14.0558C11.106 14.2045 11.3424 14.3426 11.5549 14.4701C11.7674 14.5976 11.9507 14.7039 12.1047 14.7888C12.2588 14.8738 12.3624 14.927 12.4155 14.9482C12.5217 15.0013 12.6306 15.0199 12.7422 15.004C12.8537 14.988 12.9546 14.9482 13.045 14.8845C13.1353 14.8207 13.2017 14.7437 13.2442 14.6534C13.2867 14.5631 13.2973 14.4701 13.276 14.3745C13.2654 14.332 13.2388 14.2284 13.1963 14.0637C13.1539 13.8991 13.106 13.7025 13.0529 13.4741C12.9998 13.2457 12.9387 12.9934 12.8697 12.7171C12.8006 12.4409 12.7289 12.1594 12.6545 11.8725C12.4952 11.2138 12.3145 10.4701 12.1127 9.64144C12.7395 9.0996 13.3026 8.6162 13.8019 8.19124C14.0144 8.01062 14.2242 7.83267 14.4314 7.65737C14.6386 7.48207 14.8245 7.32271 14.9892 7.17928C15.1539 7.03586 15.2893 6.91899 15.3956 6.82869C15.5018 6.73838 15.5602 6.68792 15.5709 6.67729C15.6983 6.56043 15.8072 6.43028 15.8975 6.28685C15.9879 6.14343 16.0224 5.99734 16.0011 5.84861C15.9799 5.69987 15.9214 5.583 15.8258 5.49801C15.7302 5.41301 15.624 5.35989 15.5071 5.33865L10.5828 4.89243L8.75013 0.621514C8.68639 0.451527 8.59608 0.305445 8.47922 0.183267C8.36235 0.061089 8.20299 0 8.00113 0C7.89489 0 7.80193 0.0239044 7.72225 0.0717131C7.64256 0.119522 7.57616 0.175299 7.52304 0.239044C7.46992 0.302789 7.42477 0.366534 7.38758 0.430279C7.3504 0.494024 7.32118 0.547145 7.29994 0.589642L5.51507 4.86056L0.590771 5.32271C0.378287 5.37583 0.229548 5.43958 0.144555 5.51394C0.0595617 5.58831 0.017065 5.70518 0.017065 5.86454C0.017065 6.01328 0.0622187 6.14343 0.152524 6.25498C0.242829 6.36653 0.357039 6.50199 0.495153 6.66136L3.79396 9.6255Z"
    fill="#DD4848" />
</svg>