<svg width="80" height="80" viewBox="0 0 80 80" fill="none" xmlns="http://www.w3.org/2000/svg">
<rect width="80" height="80" rx="16" fill="url(#paint0_linear_4290_56853)"/>
<g filter="url(#filter0_d_4290_56853)">
<path d="M59.5288 32.0646C59.846 32.738 60.007 33.4736 59.9998 34.217C59.9925 34.9605 59.8173 35.6928 59.4869 36.36C59.1566 37.0272 58.6796 37.6122 58.0911 38.0719C57.5027 38.5315 56.8178 38.8541 56.0871 39.0157C55.3563 39.1774 54.5984 39.174 53.8691 39.0058C53.1399 38.8377 52.4579 38.509 51.8737 38.0442C51.2894 37.5793 50.8177 36.99 50.4934 36.3199C50.1691 35.6498 50.0005 34.9159 50 34.1724C50 35.4894 49.4732 36.7524 48.5355 37.6836C47.5979 38.6148 46.3261 39.1379 45 39.1379C43.6739 39.1379 42.4021 38.6148 41.4645 37.6836C40.5268 36.7524 40 35.4894 40 34.1724C40 35.4894 39.4732 36.7524 38.5355 37.6836C37.5979 38.6148 36.3261 39.1379 35 39.1379C33.6739 39.1379 32.4021 38.6148 31.4645 37.6836C30.5268 36.7524 30 35.4894 30 34.1724C29.9995 34.9159 29.8309 35.6498 29.5066 36.3199C29.1823 36.99 28.7106 37.5793 28.1263 38.0442C27.5421 38.509 26.8601 38.8377 26.1309 39.0058C25.4016 39.174 24.6437 39.1774 23.9129 39.0157C23.1822 38.8541 22.4973 38.5315 21.9089 38.0719C21.3204 37.6122 20.8434 37.0272 20.5131 36.36C20.1827 35.6928 20.0075 34.9605 20.0002 34.217C19.993 33.4736 20.154 32.738 20.4712 32.0646L22.065 24.944C22.1884 24.3927 22.4974 23.8996 22.941 23.5462C23.3846 23.1928 23.9363 23.0001 24.505 23H55.495C56.0637 23.0001 56.6154 23.1928 57.059 23.5462C57.5026 23.8996 57.8116 24.3927 57.935 24.944L59.5288 32.0646ZM57.4662 41.2086C57.4887 41.3426 57.5 41.4804 57.5 41.6207V56.5172C57.5 57.1757 57.2366 57.8072 56.7678 58.2728C56.2989 58.7384 55.663 59 55 59H25C24.337 59 23.7011 58.7384 23.2322 58.2728C22.7634 57.8072 22.5 57.1757 22.5 56.5172V41.6207C22.5 41.4804 22.5125 41.3426 22.5337 41.2086C23.3268 41.4822 24.1605 41.6216 25 41.6207C26.8453 41.6232 28.6263 40.9476 30 39.7239C31.3737 40.9476 33.1547 41.6232 35 41.6207C36.8453 41.6232 38.6263 40.9476 40 39.7239C41.3737 40.9476 43.1547 41.6232 45 41.6207C46.8453 41.6232 48.6263 40.9476 50 39.7239C51.3737 40.9476 53.1547 41.6232 55 41.6207C55.8638 41.6207 56.6937 41.4754 57.4662 41.2086ZM30.625 46.5862C30.1277 46.5862 29.6508 46.7824 29.2992 47.1316C28.9475 47.4808 28.75 47.9544 28.75 48.4483V52.1724C28.75 52.6663 28.9475 53.1399 29.2992 53.4891C29.6508 53.8383 30.1277 54.0345 30.625 54.0345C31.1223 54.0345 31.5992 53.8383 31.9508 53.4891C32.3025 53.1399 32.5 52.6663 32.5 52.1724V48.4483C32.5 47.9544 32.3025 47.4808 31.9508 47.1316C31.5992 46.7824 31.1223 46.5862 30.625 46.5862Z" fill="url(#paint1_linear_4290_56853)" shape-rendering="crispEdges"/>
</g>
<defs>
<filter id="filter0_d_4290_56853" x="16" y="21" width="48" height="44" filterUnits="userSpaceOnUse" color-interpolation-filters="sRGB">
<feFlood flood-opacity="0" result="BackgroundImageFix"/>
<feColorMatrix in="SourceAlpha" type="matrix" values="0 0 0 0 0 0 0 0 0 0 0 0 0 0 0 0 0 0 127 0" result="hardAlpha"/>
<feOffset dy="2"/>
<feGaussianBlur stdDeviation="2"/>
<feComposite in2="hardAlpha" operator="out"/>
<feColorMatrix type="matrix" values="0 0 0 0 0.991781 0 0 0 0 0.584643 0 0 0 0 0.200551 0 0 0 1 0"/>
<feBlend mode="normal" in2="BackgroundImageFix" result="effect1_dropShadow_4290_56853"/>
<feBlend mode="normal" in="SourceGraphic" in2="effect1_dropShadow_4290_56853" result="shape"/>
</filter>
<linearGradient id="paint0_linear_4290_56853" x1="40" y1="0" x2="40" y2="80" gradientUnits="userSpaceOnUse">
<stop stop-color="#FAC740"/>
<stop offset="1" stop-color="#FFB370"/>
</linearGradient>
<linearGradient id="paint1_linear_4290_56853" x1="40" y1="23" x2="40" y2="59" gradientUnits="userSpaceOnUse">
<stop stop-color="white" stop-opacity="0.4"/>
<stop offset="1" stop-color="white"/>
</linearGradient>
</defs>
</svg>
