<svg viewBox="0 0 88 88" version="1.1" xmlns="http://www.w3.org/2000/svg"><title>video</title><g id="-------UI-Kit_16_上传-Uploader" stroke="none" stroke-width="1" fill="none" fill-rule="evenodd"><g id="UI-Kit_16_上传-Uploader" transform="translate(-1952.000000, -3508.000000)"><g id="video" transform="translate(1952.000000, 3508.000000)"><rect id="矩形" fill="#D8D8D8" opacity="0" x="0" y="0" width="88" height="88"></rect><g id="编组-7备份" transform="translate(8.000000, 8.000000)"><g id="编组-4备份-4"><rect id="形状结合" fill="#0073E5" x="0" y="0" width="72" height="72" rx="8"></rect><circle id="椭圆形" fill="#FFFFFF" cx="36" cy="39" r="17"></circle><g id="编组" transform="translate(28.000000, 29.000000)"><rect id="矩形" fill-opacity="0" fill="#FFFFFF" x="0" y="0" width="20" height="20"></rect><path d="M16.2858323,10.7372106 L4.81618276,18.9896143 C4.40118679,19.2882036 3.81805758,19.2001838 3.5137272,18.7930166 C3.3965249,18.6362103 3.33333333,18.446824 3.33333333,18.2523729 L3.33333333,1.74756552 C3.33333333,1.24264903 3.75051912,0.833333333 4.26514387,0.833333333 C4.46333376,0.833333333 4.65636145,0.895332808 4.81618276,1.01032412 L16.2858323,9.26272782 C16.7008283,9.56131709 16.7905404,10.1334457 16.4862101,10.5406129 C16.4300238,10.6157852 16.36245,10.6820843 16.2858323,10.7372106 Z" id="三角形" fill="#0073E5"></path></g></g><path d="M7,0 L65,0 C68.8659932,-7.10171439e-16 72,3.13400675 72,7 L72,10 L72,10 L0,10 L0,7 C-4.73447626e-16,3.13400675 3.13400675,7.10171439e-16 7,0 Z" id="矩形" fill="#FFFFFF"></path><polygon id="矩形" fill="#87C3FF" points="9.88619889 0 19 0 14.1138011 10 5 10"></polygon><polygon id="矩形备份-15" fill="#87C3FF" points="25.8861989 0 35 0 30.1138011 10 21 10"></polygon><polygon id="矩形备份-16" fill="#87C3FF" points="41.8861989 0 51 0 46.1138011 10 37 10"></polygon><polygon id="矩形备份-17" fill="#87C3FF" points="57.8861989 0 67 0 62.1138011 10 53 10"></polygon></g></g></g></g></svg>
