<svg width="24" height="24" viewBox="0 0 24 24" fill="none" xmlns="http://www.w3.org/2000/svg">
<path d="M20.4712 3.5136C18.2058 1.2482 15.1952 0 11.9911 0C8.78802 0 5.77696 1.2482 3.51257 3.514C1.24738 5.7804 2.16104e-07 8.7944 2.16104e-07 12C-0.000599198 15.2062 1.24578 18.2192 3.51077 20.4872C5.77476 22.7516 8.78622 24 11.9889 24C15.193 24 18.2054 22.7508 20.4712 20.4848C25.1456 15.8066 25.1464 8.1938 20.4712 3.5136ZM19.3661 19.3788C17.3956 21.3504 14.7758 22.4372 11.9889 22.4372C9.20401 22.4372 6.58477 21.3508 4.61549 19.3812C2.64642 17.4102 1.56207 14.7888 1.56267 12C1.56267 9.2116 2.64741 6.59 4.61709 4.6196C6.58677 2.649 9.20521 1.564 11.9911 1.564C14.7772 1.564 17.396 2.649 19.3661 4.6198C23.4317 8.6892 23.4317 15.3108 19.3661 19.3788ZM17.1728 14.9408L13.0277 12.542V6C13.0277 5.448 12.5801 5 12.0283 5C11.4768 5 11.0292 5.4478 11.0292 6V13.0002C11.0292 13.3712 11.49 13.6822 11.7897 13.8542C11.8726 13.979 12.1004 14.0922 12.2394 14.1722L16.3616 16.6724C16.8392 16.9482 17.3568 16.7842 17.6326 16.3064C17.9083 15.828 17.6516 15.217 17.1728 14.9408Z" fill="#DD4848"/>
</svg>
