<svg width="32" height="31" viewBox="0 0 32 31" fill="none" xmlns="http://www.w3.org/2000/svg">
<path d="M24.4118 19.251C24.7731 20.9296 25.0918 22.4489 25.368 23.8088C25.4955 24.3825 25.6124 24.9562 25.7186 25.5299C25.8249 26.1036 25.9258 26.6242 26.0214 27.0916C26.117 27.5591 26.1967 27.9575 26.2604 28.2869C26.3242 28.6162 26.3667 28.8234 26.3879 28.9084C26.4517 29.3333 26.3561 29.6149 26.1011 29.753C25.8461 29.8911 25.5592 29.9602 25.2405 29.9602C25.1343 29.9602 24.9802 29.923 24.7784 29.8486C24.5765 29.7742 24.4225 29.7158 24.3162 29.6733L15.9975 24.8287C14.4889 25.7211 13.1183 26.5179 11.8859 27.2191C11.3547 27.5166 10.8288 27.8141 10.3083 28.1116C9.78767 28.409 9.31489 28.6853 8.88993 28.9402C8.46496 29.1952 8.09842 29.4077 7.79032 29.5777C7.48222 29.7477 7.27505 29.8539 7.16881 29.8964C6.95633 30.0027 6.73853 30.0398 6.51542 30.008C6.29232 29.9761 6.09046 29.8964 5.90984 29.7689C5.72923 29.6414 5.59643 29.4874 5.51144 29.3068C5.42645 29.1262 5.4052 28.9402 5.44769 28.749C5.46894 28.664 5.52206 28.4568 5.60706 28.1275C5.69205 27.7981 5.78767 27.4051 5.89391 26.9482C6.00015 26.4914 6.12233 25.9867 6.26044 25.4343C6.39856 24.8818 6.54198 24.3187 6.69072 23.745C7.00945 22.4276 7.37067 20.9402 7.77439 19.2829C6.52073 18.1992 5.39457 17.2324 4.3959 16.3825C3.97093 16.0212 3.55128 15.6653 3.13694 15.3147C2.72259 14.9641 2.35075 14.6454 2.0214 14.3586C1.69205 14.0717 1.42113 13.838 1.20865 13.6574C0.996166 13.4768 0.8793 13.3758 0.858051 13.3546C0.603071 13.1209 0.385276 12.8606 0.204665 12.5737C0.0240539 12.2869 -0.0450032 11.9947 -0.00250652 11.6972C0.0399902 11.3997 0.156856 11.166 0.348091 10.996C0.539326 10.826 0.75181 10.7198 0.985541 10.6773L10.8341 9.78486L14.4995 1.24303C14.627 0.903055 14.8076 0.61089 15.0413 0.366534C15.2751 0.122178 15.5938 0 15.9975 0C16.21 0 16.3959 0.0478088 16.5553 0.143426C16.7146 0.239044 16.8474 0.350598 16.9537 0.478088C17.0599 0.605578 17.1502 0.733068 17.2246 0.860558C17.299 0.988048 17.3574 1.09429 17.3999 1.17928L20.9696 9.72112L30.8182 10.6454C31.2432 10.7517 31.5407 10.8792 31.7106 11.0279C31.8806 11.1766 31.9656 11.4104 31.9656 11.7291C31.9656 12.0266 31.8753 12.2869 31.6947 12.51C31.5141 12.7331 31.2857 13.004 31.0094 13.3227L24.4118 19.251Z" fill="#949495"/>
</svg>
