<?xml version="1.0" encoding="UTF-8"?>
<svg width="56px" height="56px" viewBox="0 0 56 56" version="1.1" xmlns="http://www.w3.org/2000/svg" xmlns:xlink="http://www.w3.org/1999/xlink">
    <title>朋友圈</title>
    <g id="页面-1" stroke="none" stroke-width="1" fill="none" fill-rule="evenodd">
        <g id="ICON和标签" transform="translate(-490.000000, -611.000000)" fill="#33CC00" fill-rule="nonzero">
            <g id="朋友圈" transform="translate(490.000000, 611.000000)">
                <path d="M28,0 C12.5357037,0 0,12.5357037 0,28 C0,43.4642963 12.5357037,56 28,56 C43.4642963,56 56,43.4642963 56,28 C56,12.5357037 43.4642963,0 28,0 Z M40.5388148,15.4611852 C43.121037,18.0434074 44.1580741,20.4244445 44.1580741,20.4244445 L35.5755556,29.005926 L35.4770371,11.9404436 C35.4780741,11.9394074 37.9576296,12.878963 40.5388148,15.4611852 Z M28,10.2666666 C31.6524445,10.2666666 34.0687407,11.2165926 34.0687407,11.2165926 L34.0687407,23.3540741 L21.9322963,11.3565926 C21.9322963,11.3565926 24.3485926,10.2666666 28,10.2666666 Z M15.4611852,15.4611852 C18.0444445,12.878963 20.4244445,11.8419259 20.4244445,11.8419259 L29.005926,20.4234074 L11.9414806,20.5208893 C11.9404445,20.5219259 12.878963,18.0434074 15.4611852,15.4611852 Z M10.2666666,28 C10.2666666,24.3485926 11.2176296,21.9322963 11.2176296,21.9322963 L23.3540741,21.9322963 L11.3555555,34.0677037 C11.3555555,34.0677037 10.2666666,31.6514074 10.2666666,28 Z M15.4611852,40.5388148 C12.878963,37.9565926 11.8419259,35.5755555 11.8419259,35.5755555 L20.4244444,26.994074 L20.5229629,44.0595555 C20.5219259,44.0595555 18.0434074,43.121037 15.4611852,40.5388148 Z M28,45.7333334 C24.3475555,45.7333334 21.9312593,44.7834074 21.9312593,44.7834074 L21.9312593,32.6459259 L34.0677041,44.6444444 C34.0687407,44.6444445 31.6524445,45.7333334 28,45.7333334 Z M40.5388148,40.5388148 C37.9565926,43.121037 35.5755555,44.1580741 35.5755555,44.1580741 L26.994074,35.5755556 L44.0595564,35.4770371 C44.0605926,35.4780741 43.121037,37.9565926 40.5388148,40.5388148 Z M44.7823704,34.0677037 L32.6459259,34.0677037 L44.6444445,21.9312593 C44.6444445,21.9312593 45.7333334,24.3475556 45.7333334,27.998963 C45.7333334,31.6514074 44.7823704,34.0677037 44.7823704,34.0677037 Z" id="形状"></path>
            </g>
        </g>
    </g>
</svg>