<svg width="64" height="64" viewBox="0 0 64 64" fill="none" xmlns="http://www.w3.org/2000/svg">
<circle cx="32" cy="32" r="32" fill="#EFEFEF"/>
<path d="M32 31.7465C30.1123 31.7465 28.302 31.0224 26.9672 29.7334C25.6324 28.4444 24.8825 26.6962 24.8825 24.8733C24.8825 23.0504 25.6324 21.3021 26.9672 20.0131C28.302 18.7241 30.1123 18 32 18C33.8877 18 35.698 18.7241 37.0328 20.0131C38.3676 21.3021 39.1175 23.0504 39.1175 24.8733C39.1175 26.6962 38.3676 28.4444 37.0328 29.7334C35.698 31.0224 33.8877 31.7465 32 31.7465ZM28.25 33.3254H35.75C38.7337 33.3254 41.5952 34.47 43.705 36.5074C45.8147 38.5448 47 41.308 47 44.1893C47 44.6696 46.8025 45.1301 46.4508 45.4697C46.0992 45.8092 45.6223 46 45.125 46H18.875C18.3777 46 17.9008 45.8092 17.5492 45.4697C17.1975 45.1301 17 44.6696 17 44.1893C17 41.308 18.1853 38.5448 20.295 36.5074C22.4048 34.47 25.2663 33.3254 28.25 33.3254Z" fill="#C3C3C3"/>
</svg>
