<svg width="40" height="40" viewBox="0 0 40 40" fill="none" xmlns="http://www.w3.org/2000/svg">
<g clip-path="url(#clip0_22_5227)">
<rect x="2" y="2" width="36" height="36" fill="white" fill-opacity="0.01"/>
<path fill-rule="evenodd" clip-rule="evenodd" d="M21.4323 5.29999C20.848 5.29999 20.3575 5.80388 20.3048 6.45828L20.3001 6.57526L20.3001 11.4832L19.9869 11.4695C15.0676 11.254 10.8887 13.2622 7.42658 17.5134C4.4663 21.1484 3.31432 26.3728 3.98407 33.1901L4.0283 33.6182L4.04632 33.7448C4.10995 34.0827 4.28777 34.3709 4.53238 34.5404C4.97009 34.8437 5.52339 34.7026 5.82678 34.2092L5.88064 34.1126L6.07876 33.723C8.01342 29.9708 9.98952 27.497 12.0231 26.3039C14.4369 24.8877 17.022 24.4646 19.7636 25.0364L20.0689 25.104L20.3005 25.1583L20.3001 31.117C20.3001 31.4125 20.3914 31.6983 20.5576 31.926C20.9263 32.4315 21.5658 32.5357 22.0427 32.1907L22.1301 32.1207L35.7656 20.0866C35.825 20.0342 35.8796 19.9753 35.9287 19.9105C36.318 19.3971 36.2812 18.6414 35.8648 18.1776L35.7823 18.0942L22.1468 5.58656C21.944 5.4006 21.6915 5.29999 21.4323 5.29999ZM22.427 8.73068L22.4271 13.7052L19.8938 13.5947L19.6056 13.585C15.4904 13.488 12.0448 15.2114 9.07607 18.8568C7.16408 21.2045 6.11988 24.3838 5.95097 28.3974L5.90059 29.7083L6.61467 28.7018L6.84727 28.3813C8.09029 26.6987 9.37416 25.4462 10.7196 24.6065L10.9502 24.4669L11.2385 24.3022C14.0337 22.7479 17.0668 22.2944 20.2267 22.9599L20.5578 23.0336L22.4278 23.4717L22.427 29.0207L33.7003 19.0713L22.427 8.73068Z" fill="black"/>
</g>
<defs>
<clipPath id="clip0_22_5227">
<rect width="750" height="88" fill="white" transform="translate(-688 -24)"/>
</clipPath>
</defs>
</svg>
