<svg width="80" height="80" viewBox="0 0 80 80" fill="none" xmlns="http://www.w3.org/2000/svg">
<circle cx="40" cy="40" r="39.5" stroke="#E5E5E5"/>
<path d="M48.49 32.278C49.042 32.278 49.585 32.32 50.131 32.38C48.661 25.534 41.344 20.449 32.989 20.449C23.65 20.449 16 26.812 16 34.897C16 39.562 18.544 43.393 22.798 46.369L21.1 51.478L27.04 48.502C29.164 48.919 30.868 49.351 32.989 49.351C33.523 49.351 34.051 49.327 34.573 49.288C34.243 48.151 34.048 46.963 34.048 45.724C34.051 38.302 40.423 32.278 48.49 32.278ZM39.358 27.673C40.642 27.673 41.485 28.516 41.485 29.794C41.485 31.066 40.642 31.918 39.358 31.918C38.089 31.918 36.811 31.066 36.811 29.794C36.811 28.513 38.086 27.673 39.358 27.673ZM27.469 31.918C26.194 31.918 24.91 31.066 24.91 29.794C24.91 28.516 26.194 27.673 27.469 27.673C28.744 27.673 29.59 28.513 29.59 29.794C29.59 31.066 28.744 31.918 27.469 31.918ZM64 45.52C64 38.728 57.202 33.193 49.567 33.193C41.482 33.193 35.119 38.731 35.119 45.52C35.119 52.33 41.485 57.847 49.567 57.847C51.259 57.847 52.966 57.424 54.664 56.998L59.323 59.554L58.045 55.306C61.456 52.744 64 49.351 64 45.52ZM44.881 43.393C44.038 43.393 43.183 42.553 43.183 41.695C43.183 40.849 44.038 39.997 44.881 39.997C46.171 39.997 47.008 40.849 47.008 41.695C47.008 42.553 46.171 43.393 44.881 43.393ZM54.226 43.393C53.389 43.393 52.537 42.553 52.537 41.695C52.537 40.849 53.386 39.997 54.226 39.997C55.504 39.997 56.353 40.849 56.353 41.695C56.353 42.553 55.504 43.393 54.226 43.393Z" fill="#272636"/>
</svg>
