<svg width="80" height="80" viewBox="0 0 80 80" fill="none" xmlns="http://www.w3.org/2000/svg">
<rect width="80" height="80" rx="16" fill="url(#paint0_linear_4288_19434)"/>
<g filter="url(#filter0_d_4288_19434)">
<path d="M49.7436 22C49.9918 22 50.236 22.0632 50.453 22.1836C50.67 22.3039 50.8527 22.4775 50.9839 22.6879L51.0512 22.8076L54.783 30.2693L59 30.2703V33.1892L56.2435 33.1882L58.8383 38.3742C58.9189 38.5358 58.9688 38.711 58.9854 38.8908L58.9922 39.027L59 52.6486V56.5405C59 56.9033 58.8646 57.2531 58.6204 57.5217C58.3761 57.7903 58.0404 57.9584 57.6788 57.9932L57.5385 58H49.7436C49.3803 58 49.03 57.8648 48.761 57.6209C48.4921 57.377 48.3238 57.0418 48.2889 56.6806L48.282 56.5405L48.2811 54.1081H31.717L31.7179 56.5405C31.718 56.8795 31.5999 57.208 31.3839 57.4695C31.1679 57.731 30.8674 57.9093 30.5341 57.9737L30.3977 57.9932L30.2564 58H22.4615C22.0982 58 21.7479 57.8648 21.479 57.6209C21.21 57.377 21.0417 57.0418 21.0068 56.6806L21 56.5405V39.027C21 38.8461 21.0341 38.667 21.0994 38.4987L21.1539 38.3742L23.7506 33.1892H21V30.2703L25.2122 30.2693L28.9488 22.8066C29.0599 22.5851 29.2256 22.3954 29.4303 22.2555C29.635 22.1156 29.872 22.03 30.119 22.0068L30.2564 22H49.7436ZM46.8205 43.4054H33.1795V46.3243H46.8205V43.4054Z" fill="url(#paint1_linear_4288_19434)" shape-rendering="crispEdges"/>
</g>
<defs>
<filter id="filter0_d_4288_19434" x="17" y="20" width="46" height="44" filterUnits="userSpaceOnUse" color-interpolation-filters="sRGB">
<feFlood flood-opacity="0" result="BackgroundImageFix"/>
<feColorMatrix in="SourceAlpha" type="matrix" values="0 0 0 0 0 0 0 0 0 0 0 0 0 0 0 0 0 0 127 0" result="hardAlpha"/>
<feOffset dy="2"/>
<feGaussianBlur stdDeviation="2"/>
<feComposite in2="hardAlpha" operator="out"/>
<feColorMatrix type="matrix" values="0 0 0 0 0 0 0 0 0 0.431758 0 0 0 0 0.902181 0 0 0 0.4 0"/>
<feBlend mode="normal" in2="BackgroundImageFix" result="effect1_dropShadow_4288_19434"/>
<feBlend mode="normal" in="SourceGraphic" in2="effect1_dropShadow_4288_19434" result="shape"/>
</filter>
<linearGradient id="paint0_linear_4288_19434" x1="40" y1="0" x2="40" y2="80" gradientUnits="userSpaceOnUse">
<stop stop-color="#73B6FF"/>
<stop offset="1" stop-color="#8C98EF"/>
</linearGradient>
<linearGradient id="paint1_linear_4288_19434" x1="40" y1="22" x2="40" y2="58" gradientUnits="userSpaceOnUse">
<stop stop-color="white" stop-opacity="0.4"/>
<stop offset="1" stop-color="white"/>
</linearGradient>
</defs>
</svg>
