<svg width="56" height="56" viewBox="0 0 56 56" fill="none" xmlns="http://www.w3.org/2000/svg">
<circle cx="28" cy="28" r="27.5" stroke="#D3D3D3"/>
<g clip-path="url(#clip0_4808_55076)">
<path d="M22.6806 13.894L25.9338 17.1472C27.0552 18.2682 27.1262 20.0519 26.1236 21.2566L26.0121 21.3834C25.227 22.2295 24.8289 23.1885 24.8177 24.2606C24.8281 24.4275 24.9275 24.6599 25.1159 24.9577L25.2547 25.1659L25.4199 25.3935L25.6115 25.6405L25.8294 25.9069L26.0737 26.1927L26.3444 26.4979L26.6414 26.8225L26.9649 27.1664L27.3147 27.5298L27.6909 27.9125L28.0895 28.3086L28.4759 28.6842L29.0179 29.1989L29.3542 29.5098L29.6705 29.7947L29.9667 30.0538L30.2429 30.287L30.6197 30.5884L30.8458 30.7569C30.8818 30.7828 30.917 30.8077 30.9513 30.8314L31.1474 30.9612C31.4265 31.1363 31.6379 31.2241 31.7818 31.2246C32.7463 31.228 33.6315 30.8788 34.4374 30.177L34.6088 30.0213C35.8092 28.8847 37.6961 28.9102 38.8653 30.0787L42.106 33.3194C43.298 34.5114 43.298 36.4441 42.106 37.6361L37.6359 42.1062C36.789 42.9529 35.5253 43.2262 34.4045 42.8046C29.7104 41.0418 25.4427 38.2398 21.6014 34.3986C17.7602 30.5573 14.9582 26.2896 13.1954 21.5955C12.7738 20.4747 13.0471 19.211 13.8938 18.3641L18.3639 13.894C19.5559 12.702 21.4886 12.702 22.6806 13.894ZM20.5593 16.0153C20.5457 16.0017 20.5264 15.9972 20.509 16.0017L20.4852 16.0153L16.0152 20.4853C16.0009 20.4997 15.9963 20.5207 16.0039 20.5408C17.6131 24.8259 20.178 28.7325 23.7228 32.2772C27.2675 35.822 31.1741 38.3869 35.4608 39.9967C35.4732 40.0013 35.4866 40.0009 35.4984 39.9958L35.5145 39.9849L39.9847 35.5148C39.9983 35.5012 40.0028 35.4819 39.9983 35.4645L39.9847 35.4407L36.7446 32.2006C36.7285 32.1846 36.7046 32.1811 36.6618 32.2119L36.6261 32.2418L36.4075 32.4394C35.0674 33.6064 33.4852 34.2306 31.7713 34.2246C30.9888 34.2219 30.3804 33.9961 29.6843 33.581L29.4921 33.4632L29.1242 33.2136L29.053 33.1623L28.6117 32.8263L28.3075 32.5792L27.9917 32.312L27.6623 32.0235L27.3179 31.7128L26.9519 31.3742L26.385 30.8354L25.9751 30.4368L25.5513 30.0154L25.1535 29.6104L24.7793 29.2215L24.4284 28.8479L24.1 28.4886L23.7933 28.1421L23.5074 27.8065L23.2408 27.479L23.0218 27.196L22.8335 26.9374L22.7585 26.8298L22.5808 26.5617C22.1847 25.9357 21.9235 25.3524 21.8424 24.6584L21.8235 24.4468L21.8168 24.3381L21.8179 24.2293C21.8362 22.4788 22.4688 20.8773 23.6417 19.5332L23.8187 19.3337L23.8275 19.3157C23.8288 19.3076 23.8283 19.299 23.8258 19.2908L23.8124 19.2685L20.5593 16.0153Z" fill="black"/>
</g>
<defs>
<clipPath id="clip0_4808_55076">
<rect width="36" height="36" fill="white" transform="translate(10 10)"/>
</clipPath>
</defs>
</svg>
