<svg width="151" height="42" viewBox="0 0 151 42" fill="none" xmlns="http://www.w3.org/2000/svg">
<path d="M133.003 7.84473C125.747 7.84473 119.865 13.7264 119.865 20.9826C119.865 28.2389 125.747 34.1205 133.003 34.1205C140.259 34.1205 146.141 28.2389 146.141 20.9826C146.141 13.7264 140.259 7.84473 133.003 7.84473ZM140.347 20.8771L135.714 25.7463C135.366 26.1119 134.75 25.8658 134.75 25.3596V22.1639H134.701C130.099 22.1639 126.295 24.217 125.589 26.8994H125.508C125.958 22.2166 129.902 18.5533 134.701 18.5533C134.719 18.5533 134.733 18.5568 134.75 18.5568V15.6213C134.75 15.115 135.366 14.8689 135.714 15.2346L140.347 20.1072C140.551 20.3252 140.551 20.6627 140.347 20.8771Z" fill="#F8B500"/>
<path d="M5.79688 11.625H6.78125V7.6875H10.5V11.625H11.2656V15.0156H10.3906V32.7344H6.67188V15.0156H5.79688V31.6406H1.96875V8.67188H5.79688V11.625ZM11.8125 10.9688H16.8438V7.79688H20.7812V10.9688H26.4688V20.2656H26.9062V23.3281H21L23.5156 28.0312C23.8802 28.8333 24.3906 29.1979 25.0469 29.125H26.6875V32.1875H23.2969C22.349 32.2604 21.5833 31.75 21 30.6562L18.7031 26.8281L16.4062 30.6562C15.75 31.75 14.8385 32.2604 13.6719 32.1875H11.1562V29.125H11.9219C12.5052 29.1979 12.9792 28.9427 13.3438 28.3594L16.2969 23.3281H11.2656V20.2656H16.7344V14.0312H11.8125V10.9688ZM20.6719 20.2656H22.6406V14.0312H20.6719V20.2656ZM33.7969 11.625H34.7812V7.6875H38.5V11.625H39.2656V15.0156H38.3906V32.7344H34.6719V15.0156H33.7969V31.6406H29.9688V8.67188H33.7969V11.625ZM39.8125 10.9688H44.8438V7.79688H48.7812V10.9688H54.4688V20.2656H54.9062V23.3281H49L51.5156 28.0312C51.8802 28.8333 52.3906 29.1979 53.0469 29.125H54.6875V32.1875H51.2969C50.349 32.2604 49.5833 31.75 49 30.6562L46.7031 26.8281L44.4062 30.6562C43.75 31.75 42.8385 32.2604 41.6719 32.1875H39.1562V29.125H39.9219C40.5052 29.1979 40.9792 28.9427 41.3438 28.3594L44.2969 23.3281H39.2656V20.2656H44.7344V14.0312H39.8125V10.9688ZM48.6719 20.2656H50.6406V14.0312H48.6719V20.2656ZM58.0781 13.5938H58.8438C59.6458 13.6667 60.2292 12.8646 60.5938 11.1875L61.6875 7.57812H66.0625L64.6406 12.6094C63.9115 16.1823 62.4531 17.7135 60.2656 17.2031H58.0781V13.5938ZM75.9062 11.0781H67.7031V7.57812H79.4062L80.3906 11.7344C80.6094 13.0469 81.1198 13.6302 81.9219 13.4844H82.7969V16.9844H79.9531C78.349 17.1302 77.4375 16.6198 77.2188 15.4531L75.9062 11.0781ZM63 21.5781H58.0781V18.0781H81.9219V29.2344C82.0677 31.6406 80.901 32.7708 78.4219 32.625H69.0156V29.3438H76.6719C77.401 29.4896 77.7292 29.1615 77.6562 28.3594V21.5781H67.5938L65.2969 30C64.8594 31.75 63.7656 32.625 62.0156 32.625H58.0781V29.3438H60.2656C60.7031 29.2708 61.1042 28.9062 61.4688 28.25L63 21.5781ZM96.25 8.45312V7.46875H100.516V8.5625H110.688V11.625H85.75V8.45312H96.25ZM86.8438 19.7188V12.5H109.703V17.0938C109.922 19.1354 108.938 20.0104 106.75 19.7188H86.8438ZM91.1094 16.7656H105.219C105.583 16.8385 105.766 16.6198 105.766 16.1094V15.5625H91.1094V16.7656ZM86.7344 23.5469V20.4844H110.141V23L108.281 24.9688H110.578V27.9219H107.188V30C107.333 31.8958 106.677 32.7344 105.219 32.5156H87.7188V29.4531H102.703C102.922 29.526 103.031 29.3438 103.031 28.9062V27.9219H85.8594V24.9688H103.469L104.781 23.5469H86.7344Z" fill="#F8B500"/>
</svg>
