<?xml version="1.0" encoding="UTF-8"?>
<svg width="48px" height="48px" viewBox="0 0 48 48" version="1.1" xmlns="http://www.w3.org/2000/svg" xmlns:xlink="http://www.w3.org/1999/xlink">
    <title>图标/线性/UploadOutlined</title>
    <g id="图标/线性/UploadOutlined" stroke="none" stroke-width="1" fill="none" fill-rule="evenodd">
        <g id="编组备份">
            <rect id="矩形" fill-opacity="0" fill="#FFFFFF" x="0" y="0" width="48" height="48"></rect>
            <path d="M24,14 C25.1045695,14 26,14.8954305 26,16 L26,37.263 L33.6662349,29.5737863 C34.3864707,28.8512807 35.5323944,28.8115108 36.2994767,29.4557425 L36.4280163,29.5737863 C37.1913631,30.3395388 37.1913631,31.5785193 36.4280163,32.3442718 L25.5755303,43.2320939 C25.2910428,43.5953681 24.8836427,43.8577637 24.415917,43.956694 L24.326,43.971 L24.304,43.975 L24.2378143,43.9860082 L24.2378143,43.9860082 L24.296,43.976 L24.2255654,43.9864022 L24.2255654,43.9864022 C24.1840747,43.9920833 24.1419551,43.9954883 24.0994873,43.9975687 C24.0916532,43.9973456 24.0836808,43.9977021 24.0757069,43.99801 L24.0503963,43.9993774 C24.0336478,43.9997917 24.0168482,44 24,44 L23.95,43.998 L23.9242931,43.99801 L23.9,43.996 L23.8507377,43.9945143 C23.272048,43.9518201 22.7618341,43.6628888 22.4244697,43.2320939 L11.5719837,32.3442718 C10.8488131,31.618822 10.8107514,30.468647 11.4577988,29.6984893 L11.576322,29.569448 C12.2988277,28.8492122 13.4448709,28.8130483 14.2099222,29.4596906 L14.3337651,29.5737863 L22,37.265 L22,16 C22,14.8954305 22.8954305,14 24,14 Z M42,4 C43.1045695,4 44,4.8954305 44,6 L44,16 C44,17.1045695 43.1045695,18 42,18 C40.8954305,18 40,17.1045695 40,16 L40,8 L8,8 L8,16 C8,17.1045695 7.1045695,18 6,18 C4.8954305,18 4,17.1045695 4,16 L4,6 C4,4.8954305 4.8954305,4 6,4 L42,4 Z" id="形状结合" fill="#f8b500" transform="translate(24.000000, 24.000000) scale(1, -1) translate(-24.000000, -24.000000) "></path>
        </g>
    </g>
</svg>