<svg width="52" height="52" viewBox="0 0 52 52" fill="none" xmlns="http://www.w3.org/2000/svg">
<g clip-path="url(#clip0_4290_56810)">
<path d="M17.1326 17.3584C16.2308 17.3584 15.3291 17.9596 15.3291 18.8613C15.3291 19.763 16.2308 20.3642 17.1326 20.3642C18.0343 20.3642 18.6355 19.763 18.6355 18.8613C18.6355 17.922 18.0343 17.3584 17.1326 17.3584ZM29.3436 26.0752C28.7424 26.0752 28.1788 26.7139 28.1788 27.2775C28.1788 27.9162 28.78 28.4798 29.3436 28.4798C30.2453 28.4798 30.8464 27.8786 30.8464 27.2775C30.8464 26.6763 30.2453 26.0752 29.3436 26.0752ZM25.4736 20.3642C26.3753 20.3642 26.9765 19.7255 26.9765 18.8613C26.9765 17.9596 26.3753 17.3584 25.4736 17.3584C24.5719 17.3584 23.6701 17.9596 23.6701 18.8613C23.6701 19.763 24.5719 20.3642 25.4736 20.3642ZM35.8811 26.0752C35.28 26.0752 34.7164 26.7139 34.7164 27.2775C34.7164 27.9162 35.3175 28.4798 35.8811 28.4798C36.7829 28.4798 37.384 27.8786 37.384 27.2775C37.384 26.6763 36.7829 26.0752 35.8811 26.0752Z" fill="#28C445"/>
<path d="M25.9249 0.150391C11.6098 0.150391 0 11.7602 0 26.0752C0 40.3903 11.6098 52.0001 25.9249 52.0001C40.2399 52.0001 51.8497 40.3903 51.8497 26.0752C51.8497 11.7602 40.2399 0.150391 25.9249 0.150391ZM21.0029 32.7255C19.5 32.7255 18.2977 32.425 16.8699 32.0868L12.737 34.1909L13.9017 30.5463C10.9335 28.4423 9.13006 25.6995 9.13006 22.4307C9.13006 16.6822 14.5029 12.1735 21.0029 12.1735C26.8266 12.1735 31.974 15.7804 32.9884 20.6273C32.6127 20.5897 32.237 20.5521 31.8613 20.5521C26.2254 20.6273 21.7919 24.8729 21.7919 30.133C21.7919 30.9972 21.9422 31.8238 22.1676 32.6504C21.7919 32.688 21.3786 32.7255 21.0029 32.7255ZM38.5867 36.9336L39.4884 39.9394L36.2572 38.1359C35.0925 38.4365 33.8902 38.7371 32.6879 38.7371C27.0144 38.7371 22.5434 34.8296 22.5434 29.9828C22.5058 25.1735 26.9769 21.266 32.6127 21.266C37.9855 21.266 42.7197 25.2111 42.7197 30.0203C42.7197 32.7255 40.9538 35.1302 38.5867 36.9336Z" fill="#28C445"/>
</g>
<defs>
<clipPath id="clip0_4290_56810">
<rect width="52" height="52" fill="white"/>
</clipPath>
</defs>
</svg>
