<?xml version="1.0" encoding="UTF-8"?>
<svg width="56px" height="56px" viewBox="0 0 56 56" version="1.1" xmlns="http://www.w3.org/2000/svg" xmlns:xlink="http://www.w3.org/1999/xlink">
    <title>链接</title>
    <g id="页面-1" stroke="none" stroke-width="1" fill="none" fill-rule="evenodd">
        <g id="分享1辆车" transform="translate(-303.000000, -686.000000)" fill-rule="nonzero">
            <g id="编组-7" transform="translate(0.000000, 437.000000)">
                <g id="链接" transform="translate(303.000000, 249.000000)">
                    <path d="M28,0 C12.5357037,0 0,12.5357037 0,28 C0,43.4642963 12.5357037,56 28,56 C43.4642963,56 56,43.4642963 56,28 C56,12.5357037 43.4642963,0 28,0 Z" id="形状备份-2" fill="#3F6CF2"></path>
                    <g id="链接-(1)" transform="translate(15.000000, 15.000000)" fill="#FFFFFF">
                        <path d="M11.1527731,12.6748347 L9.93476353,13.8887047 C8.82327399,13.3885984 7.47315108,13.5922324 6.55540095,14.5011792 L2.52904924,18.5182963 C1.35090645,19.7032767 1.34644094,21.6193152 2.51904747,22.8098045 L3.16685412,23.4624799 C4.34840846,24.6442854 6.25953388,24.648764 7.4465839,23.4725092 L11.4729356,19.4546207 C12.1515458,18.7720719 12.4407581,17.8469757 12.3399237,16.9576939 L13.68904,15.6103968 C14.3369036,17.2903464 13.9834358,19.2717759 12.6308323,20.6216188 L8.60576285,24.638993 C6.78159471,26.4596952 3.82132862,26.4527518 2.00485417,24.6235633 L1.35704751,23.9708879 C-0.458401133,22.1416993 -0.451476819,19.1722576 1.3726913,17.3518125 L5.39750427,13.3341811 C6.95991359,11.7747404 9.35632989,11.556251 11.1527731,12.6748347 Z M18.6682879,7.26515206 L18.7382474,7.33569922 C19.0880446,7.68843497 19.0872491,8.04037221 18.7358609,8.39151093 L9.38349006,17.7372435 C9.03210193,18.0883822 8.68150927,18.0875837 8.33171208,17.7348479 L8.26175265,17.6643008 C7.91195545,17.311565 7.91275092,16.9596278 8.26413905,16.6084891 L17.6165099,7.26275651 C17.967898,6.91161779 18.3184907,6.91241631 18.6682879,7.26515206 Z M23.9964281,1.3764367 L24.6429525,2.02988363 C26.4584011,3.85881496 26.4514768,6.82825678 24.6273087,8.6487018 L20.6024957,12.6655617 C19.2499654,14.0157129 17.2724436,14.3609767 15.6005986,13.7036593 L16.9505003,12.3570292 C17.8368603,12.4622965 18.7607592,12.1766153 19.4445991,11.4993351 L23.4696685,7.48221805 C24.6478113,6.29723759 24.6522768,4.38119915 23.4796703,3.19070985 L22.8316071,2.53803441 C21.6500247,1.3565391 19.7392109,1.35206095 18.5521338,2.52800512 L14.5270644,6.54512217 C13.6160586,7.46141519 13.4068233,8.81482574 13.9009281,9.93189349 L12.6842198,11.1451128 C11.57755,9.3387475 11.8069934,6.93710998 13.3691677,5.37812407 L17.3955194,1.36100703 C19.2196876,-0.459695152 22.180723,-0.452751806 23.9964281,1.3764367 Z" id="形状结合"></path>
                    </g>
                </g>
            </g>
        </g>
    </g>
</svg>