<?xml version="1.0" encoding="UTF-8"?>
<svg width="56px" height="56px" viewBox="0 0 56 56" version="1.1" xmlns="http://www.w3.org/2000/svg" xmlns:xlink="http://www.w3.org/1999/xlink">
    <title>微信</title>
    <g id="页面-1" stroke="none" stroke-width="1" fill="none" fill-rule="evenodd">
        <g id="ICON和标签" transform="translate(-409.000000, -611.000000)" fill="#28C445" fill-rule="nonzero">
            <g id="微信" transform="translate(409.000000, 611.000000)">
                <path d="M17.9625213,18 C16.9812607,18 16,18.6486486 16,19.6216216 C16,20.5945945 16.9812606,21.2432432 17.9625213,21.2432432 C18.943782,21.2432432 19.5979557,20.5945946 19.5979557,19.6216216 C19.5979557,18.6081081 18.943782,18 17.9625213,18 Z M31.2504259,27.4054054 C30.5962522,27.4054054 29.9829642,28.0945946 29.9829642,28.7027027 C29.9829642,29.3918919 30.637138,30 31.2504259,30 C32.2316865,30 32.8858603,29.3513514 32.8858603,28.7027027 C32.8858603,28.054054 32.2316866,27.4054054 31.2504259,27.4054054 Z M27.0391823,21.2432432 C28.0204429,21.2432432 28.6746167,20.554054 28.6746167,19.6216216 C28.6746167,18.6486486 28.0204429,18 27.0391823,18 C26.0579216,18 25.076661,18.6486486 25.076661,19.6216216 C25.076661,20.5945945 26.0579216,21.2432432 27.0391823,21.2432432 Z M38.3645656,27.4054054 C37.7103918,27.4054054 37.0971039,28.0945946 37.0971039,28.7027027 C37.0971039,29.3918919 37.7512777,30 38.3645656,30 C39.3458262,30 40,29.3513514 40,28.7027027 C40,28.054054 39.3458263,27.4054054 38.3645656,27.4054054 Z" id="形状"></path>
                <path d="M28,0 C12.5391304,0 0,12.5391304 0,28 C0,43.4608696 12.5391304,56 28,56 C43.4608696,56 56,43.4608696 56,28 C56,12.5391304 43.4608696,0 28,0 L28,0 Z M22.684058,35.1826087 C21.0608696,35.1826087 19.7623189,34.857971 18.2202898,34.4927536 L13.7565217,36.7652174 L15.0144927,32.8289855 C11.8086956,30.5565218 9.8608696,27.5942029 9.8608696,24.0637681 C9.8608696,17.8550725 15.6637681,12.9855072 22.684058,12.9855072 C28.9739131,12.9855072 34.5333334,16.8811594 35.6289855,22.115942 C35.2231884,22.0753623 34.8173913,22.0347826 34.4115942,22.0347826 C28.3246377,22.115942 23.5362319,26.7014493 23.5362319,32.3826087 C23.5362319,33.315942 23.6985508,34.2086956 23.942029,35.1014493 C23.5362319,35.142029 23.0898551,35.1826087 22.684058,35.1826087 L22.684058,35.1826087 Z M41.6753624,39.7275362 L42.6492754,42.973913 L39.1594203,41.026087 C37.9014493,41.3507246 36.6028985,41.6753623 35.3043478,41.6753623 C29.1768116,41.6753623 24.3478261,37.4550724 24.3478261,32.2202899 C24.3072464,27.026087 29.1362319,22.8057971 35.2231884,22.8057971 C41.026087,22.8057971 46.1391305,27.0666666 46.1391305,32.2608696 C46.1391305,35.1826087 44.2318841,37.7797101 41.6753624,39.7275362 L41.6753624,39.7275362 Z" id="形状"></path>
            </g>
        </g>
    </g>
</svg>